<?xml version="1.0" encoding="utf-8"?>
<!-- Generator: Adobe Illustrator 23.0.1, SVG Export Plug-In . SVG Version: 6.00 Build 0)  -->
<svg version="1.1" xmlns="http://www.w3.org/2000/svg" xmlns:xlink="http://www.w3.org/1999/xlink" x="0px" y="0px"
	 viewBox="0 0 414.5 384" style="enable-background:new 0 0 414.5 384;" xml:space="preserve">
<style type="text/css">
	.st0{display:none;}
	.st1{display:inline;fill:#FFFFFF;}
	.st2{fill:#FFFFFF;}
</style>
<g id="Layer_1" class="st0">
	
		<image style="display:inline;overflow:visible;" width="305" height="302" xlink:href="1E4DB627.jpg"  transform="matrix(1.3713 0 0 1.3713 110.7524 617.5696)">
	</image>
	<rect x="-44.4" y="763.2" class="st1" width="717.3" height="122.9"/>
</g>
<g id="Layer_2" class="st0">
	<rect x="528.3" y="558.8" class="st1" width="108" height="228"/>
	<rect x="36.3" y="534.1" class="st1" width="618" height="84"/>
	<rect x="528.3" y="867.4" class="st1" width="100.7" height="210.7"/>
	<rect x="-11.2" y="1030.8" class="st1" width="616.2" height="86.7"/>
	<rect x="-98.4" y="864.1" class="st1" width="209.3" height="253.3"/>
	<rect x="20.9" y="580.1" class="st1" width="90" height="200.7"/>
</g>
<g id="Layer_5">
	<rect x="110.8" y="617.5" class="st2" width="414.5" height="414"/>
	<path class="st2" d="M744.1,884.3h-877.6c-8.6,0-15.6-7-15.6-15.6v-89.3c0-8.6,7-15.6,15.6-15.6h877.6c8.6,0,15.6,7,15.6,15.6v89.3
		C759.7,877.3,752.7,884.3,744.1,884.3z"/>
	<rect x="0.4" class="st2" width="414" height="383.8"/>
</g>
<g id="Layer_3">
	<g>
		<path d="M-114.2,808.3l14.7-12.7c2-1.6,4-2.4,6.1-2.4c2.3,0,4.3,0.8,6,2.5c1.7,1.7,2.5,3.5,2.5,5.4v21.1c0,4-1.7,7.4-5.1,10.3
			l-4.7,3.9l1.8,4.4h4.6c1,0,1.8,0.3,2.4,1c0.7,0.7,1,1.5,1,2.4c0,1-0.3,1.8-1,2.4c-0.7,0.7-1.5,1-2.4,1h-9.4l-2.5-6.5l-4.7,3.9
			c-2.1,1.7-4.2,2.6-6.3,2.6c-2.4,0-4.4-0.8-6-2.5c-1.6-1.7-2.4-3.7-2.4-6V820c0-2.4,0.4-4.5,1.1-6.2
			C-117.9,812-116.5,810.2-114.2,808.3z M-95,800.6l-14.7,12.7c-1.3,1.1-2.1,2.2-2.6,3.2c-0.4,1-0.6,2.4-0.6,4.3v18
			c0,1.4,0.5,2.1,1.6,2.1c0.4,0,0.9-0.2,1.3-0.5l7-6l-2.3-6c-0.3-0.8-0.5-1.5-0.5-2c0-0.8,0.3-1.6,1-2.3c0.7-0.7,1.5-1,2.4-1
			c1.6,0,2.7,0.7,3.2,2l1.8,4.6c2-1.6,3.4-2.8,4.2-3.9s1.2-2.2,1.2-3.6v-20.3c0-1.1-0.5-1.7-1.6-1.7
			C-94.1,800.1-94.6,800.3-95,800.6z"/>
		<path d="M-68.9,844.3v-51.1h24.4c2.8,0,5.2,1,7.3,3.1c2,2.1,3.1,4.5,3.1,7.3v3.9c0,2.9-1,5.3-3,7.4c-2,2-4.5,3.1-7.3,3.1h-4.4
			l14.1,24.2c0.4,0.7,0.7,1.4,0.7,2.1c0,0.9-0.4,1.7-1.1,2.4c-0.7,0.7-1.5,1-2.4,1c-1.4,0-2.4-0.6-3.1-1.8L-56.9,818h-5v26.3
			c0,1-0.3,1.8-1,2.4c-0.7,0.7-1.5,1-2.5,1c-1,0-1.8-0.3-2.4-1C-68.5,846-68.9,845.2-68.9,844.3z M-62,811.1h17.5c1,0,1.8-0.3,2.4-1
			c0.7-0.7,1-1.5,1-2.4v-4c0-1-0.3-1.8-1-2.4c-0.7-0.7-1.5-1-2.4-1H-62V811.1z"/>
		<path d="M51.4,840.8h12.4c1,0,1.8,0.3,2.5,1c0.7,0.7,1,1.5,1,2.4c0,1-0.3,1.8-1,2.4c-0.7,0.7-1.5,1-2.5,1H51
			c-1.6,0-3.3-0.5-5.1-1.6c-1.8-1-3-2.2-3.7-3.5l-8-15.4c-1.1-2.2-1.6-4.5-1.6-6.8c0-2.6,0.5-4.8,1.5-6.7l8-15.2
			c0.8-1.4,2-2.7,3.6-3.8c1.6-1.1,3.2-1.6,4.7-1.6h13.6c1,0,1.8,0.3,2.4,1c0.7,0.7,1,1.5,1,2.4c0,1-0.3,1.8-1,2.5s-1.5,1-2.4,1H51
			c-1.1,0-2,0.6-2.7,1.9l-7.6,14.3c-0.6,1.1-0.9,2.4-0.9,4c0,1.6,0.3,3,1,4.3l7.3,14C48.7,840.1,49.8,840.8,51.4,840.8z"/>
		<path d="M108.8,798.2l7.6,15.5c1.1,2.1,1.6,4.4,1.6,6.8c0,2.4-0.5,4.7-1.6,6.8l-7.6,15.3c-1.6,3.4-4.3,5-8.2,5
			c-1.8,0-3.5-0.5-4.9-1.4c-1.5-1-2.6-2.2-3.3-3.6l-7.6-15.3c-1-2-1.5-4.3-1.5-6.8s0.5-4.8,1.5-6.8l7.6-15.5c1.7-3.4,4.5-5,8.2-5
			C104.4,793.2,107.1,794.9,108.8,798.2z M98.3,801.7l-7.1,14.5c-0.7,1.4-1,2.9-1,4.3c0,1.5,0.3,2.9,1,4.3l7.3,14.7
			c0.4,0.9,1.1,1.4,2.1,1.4c0.9,0,1.5-0.5,2-1.4l7.4-14.7c0.7-1.4,1-2.9,1-4.3c0-1.5-0.3-2.9-1-4.3l-7.2-14.5
			c-0.5-1.1-1.2-1.6-2.2-1.6S98.8,800.6,98.3,801.7z"/>
		<path d="M137.3,793.2H151c1.8,0,3.5,0.6,5.2,1.7c1.7,1.1,2.9,2.5,3.7,4.1l6.8,13.8c1.3,2.5,1.9,5.1,1.9,7.8c0,2.5-0.7,5.1-2.1,7.8
			l-6.8,13.6c-0.9,1.8-2.1,3.2-3.8,4.2c-1.6,1.1-3.5,1.6-5.5,1.6h-13.2c-1,0-1.8-0.3-2.4-1c-0.7-0.7-1-1.5-1-2.4c0-1,0.3-1.8,1-2.5
			c0.7-0.7,1.5-1,2.4-1h3.6v-40.6h-3.5c-1,0-1.8-0.3-2.4-1c-0.7-0.7-1-1.5-1-2.5c0-0.9,0.3-1.7,1-2.4
			C135.6,793.5,136.4,793.2,137.3,793.2z M147.8,800.2v40.6l2.4,0c1.5,0,2.7-0.8,3.4-2.3l6.8-13.5c0.8-1.8,1.3-3.3,1.3-4.5
			c0-1.5-0.3-2.9-1-4.3l-7.1-14c-0.7-1.4-1.9-2.1-3.6-2.1H147.8z"/>
		<path d="M216,800.2h-24.4v16.8h10.5c0.9,0,1.7,0.3,2.4,1c0.7,0.7,1,1.5,1,2.4c0,1-0.3,1.8-1,2.5c-0.7,0.7-1.5,1-2.4,1h-10.5v16.9
			h24.4c0.9,0,1.7,0.3,2.4,1c0.7,0.7,1,1.5,1,2.4c0,1-0.3,1.8-1,2.4c-0.7,0.7-1.5,1-2.5,1h-31.3v-54.5H216c1,0,1.8,0.3,2.5,1
			s1,1.5,1,2.5c0,0.9-0.3,1.7-1,2.4C217.8,799.8,216.9,800.2,216,800.2z"/>
		<path d="M306.2,793.2h11.4c1,0,1.8,0.3,2.4,1c0.7,0.7,1,1.5,1,2.4c0,1-0.4,1.9-1.1,2.5c-0.7,0.7-1.5,1-2.4,1h-10.9
			c-1.1,0-2,0.5-2.8,1.5l-9.7,12.4c-0.8,1-1.2,2.4-1.2,4.1v19.1c0,1,0.3,1.8,1,2.5c0.7,0.7,1.5,1,2.4,1h14c0.9,0,1.7-0.3,2.4-1
			c0.7-0.7,1-1.5,1-2.4v-7.5h-7.1c-1,0-1.8-0.3-2.5-1c-0.7-0.7-1-1.5-1-2.4c0-1,0.3-1.8,1-2.4c0.7-0.7,1.5-1,2.5-1h14v14.4
			c0,2.8-1,5.3-3,7.3c-2,2-4.5,3-7.3,3h-14c-2.9,0-5.3-1-7.4-3c-2-2-3.1-4.5-3.1-7.3v-19.1c0-3.4,0.9-6.3,2.7-8.7l10.2-12.9
			c0.7-1,1.8-1.8,3.1-2.5C303.4,793.5,304.7,793.2,306.2,793.2z"/>
		<path d="M368.2,800.2h-24.4v16.8h10.5c0.9,0,1.7,0.3,2.4,1c0.7,0.7,1,1.5,1,2.4c0,1-0.3,1.8-1,2.5c-0.7,0.7-1.5,1-2.4,1h-10.5
			v16.9h24.4c0.9,0,1.7,0.3,2.4,1c0.7,0.7,1,1.5,1,2.4c0,1-0.3,1.8-1,2.4c-0.7,0.7-1.5,1-2.5,1h-31.3v-54.5h31.3c1,0,1.8,0.3,2.5,1
			s1,1.5,1,2.5c0,0.9-0.3,1.7-1,2.4C370,799.8,369.1,800.2,368.2,800.2z"/>
		<path d="M422.4,796.7v51h-9.2l-18.6-42.3v38.9c0,1-0.3,1.8-1,2.4c-0.7,0.7-1.5,1-2.4,1s-1.8-0.3-2.4-1c-0.7-0.7-1-1.5-1-2.4v-51.1
			h9.1l18.6,42.2v-38.7c0-1,0.3-1.8,1-2.5s1.5-1,2.5-1s1.8,0.3,2.4,1C422,794.9,422.4,795.7,422.4,796.7z"/>
		<path d="M469.7,800.2h-24.4v16.8h10.5c0.9,0,1.7,0.3,2.4,1c0.7,0.7,1,1.5,1,2.4c0,1-0.3,1.8-1,2.5c-0.7,0.7-1.5,1-2.4,1h-10.5
			v16.9h24.4c0.9,0,1.7,0.3,2.4,1c0.7,0.7,1,1.5,1,2.4c0,1-0.3,1.8-1,2.4c-0.7,0.7-1.5,1-2.5,1h-31.3v-54.5h31.3c1,0,1.8,0.3,2.5,1
			s1,1.5,1,2.5c0,0.9-0.3,1.7-1,2.4C471.4,799.8,470.6,800.2,469.7,800.2z"/>
		<path d="M489.2,844.3v-51.1h24.4c2.8,0,5.2,1,7.3,3.1s3.1,4.5,3.1,7.3v3.9c0,2.9-1,5.3-3,7.4c-2,2-4.5,3.1-7.3,3.1h-4.4l14.1,24.2
			c0.4,0.7,0.7,1.4,0.7,2.1c0,0.9-0.4,1.7-1.1,2.4c-0.7,0.7-1.5,1-2.4,1c-1.4,0-2.4-0.6-3.1-1.8L501.2,818h-5v26.3
			c0,1-0.3,1.8-1,2.4c-0.7,0.7-1.5,1-2.5,1s-1.8-0.3-2.4-1C489.6,846,489.2,845.2,489.2,844.3z M496.1,811.1h17.5c1,0,1.8-0.3,2.4-1
			c0.7-0.7,1-1.5,1-2.4v-4c0-1-0.3-1.8-1-2.4c-0.7-0.7-1.5-1-2.4-1h-17.5V811.1z"/>
		<path d="M540.1,842.9l13.9-47.1c0.6-1.7,1.7-2.6,3.5-2.6c1.7,0,2.8,0.7,3.2,2.2l13.7,47.9c0.1,0.4,0.2,0.7,0.2,1
			c0,1-0.3,1.8-1,2.4c-0.7,0.7-1.4,1-2.3,1c-1.8,0-3-0.8-3.4-2.5l-2.7-9.4h-15.8l-3,10c-0.1,0.4-0.4,0.9-1,1.2
			c-0.6,0.4-1.3,0.6-2,0.6c-1,0-1.9-0.3-2.5-1c-0.7-0.7-1-1.5-1-2.5C539.9,843.8,539.9,843.3,540.1,842.9z M557.4,809.2l-5.9,19.7
			h11.7L557.4,809.2z"/>
		<path d="M590.5,802.6v-9.3h34.8v9.4c0,1-0.3,1.8-1,2.4c-0.7,0.7-1.5,1-2.4,1c-1,0-1.8-0.3-2.5-1c-0.7-0.7-1-1.5-1-2.4v-2.5h-7
			v44.1c0,1-0.3,1.8-1,2.4c-0.7,0.7-1.5,1-2.4,1c-1,0-1.8-0.3-2.5-1c-0.7-0.7-1-1.5-1-2.4v-44.1h-7v2.4c0,1-0.3,1.8-1,2.4
			c-0.7,0.7-1.5,1-2.4,1s-1.8-0.3-2.4-1C590.9,804.4,590.5,803.5,590.5,802.6z"/>
		<path d="M666.9,798.2l7.6,15.5c1.1,2.1,1.6,4.4,1.6,6.8c0,2.4-0.5,4.7-1.6,6.8l-7.6,15.3c-1.6,3.4-4.3,5-8.2,5
			c-1.8,0-3.5-0.5-4.9-1.4c-1.5-1-2.6-2.2-3.3-3.6l-7.6-15.3c-1-2-1.5-4.3-1.5-6.8s0.5-4.8,1.5-6.8l7.6-15.5c1.7-3.4,4.5-5,8.2-5
			C662.5,793.2,665.2,794.9,666.9,798.2z M656.4,801.7l-7.1,14.5c-0.7,1.4-1,2.9-1,4.3c0,1.5,0.3,2.9,1,4.3l7.3,14.7
			c0.4,0.9,1.1,1.4,2.1,1.4c0.9,0,1.5-0.5,2-1.4l7.4-14.7c0.7-1.4,1-2.9,1-4.3c0-1.5-0.3-2.9-1-4.3l-7.2-14.5
			c-0.5-1.1-1.2-1.6-2.2-1.6S656.9,800.6,656.4,801.7z"/>
		<path d="M692.2,844.3v-51.1h24.4c2.8,0,5.2,1,7.3,3.1s3.1,4.5,3.1,7.3v3.9c0,2.9-1,5.3-3,7.4c-2,2-4.5,3.1-7.3,3.1h-4.4l14.1,24.2
			c0.4,0.7,0.7,1.4,0.7,2.1c0,0.9-0.4,1.7-1.1,2.4c-0.7,0.7-1.5,1-2.4,1c-1.4,0-2.4-0.6-3.1-1.8L704.1,818h-5v26.3
			c0,1-0.3,1.8-1,2.4c-0.7,0.7-1.5,1-2.5,1s-1.8-0.3-2.4-1C692.5,846,692.2,845.2,692.2,844.3z M699.1,811.1h17.5c1,0,1.8-0.3,2.4-1
			c0.7-0.7,1-1.5,1-2.4v-4c0-1-0.3-1.8-1-2.4c-0.7-0.7-1.5-1-2.4-1h-17.5V811.1z"/>
	</g>
	<g>
		<path d="M62.1,146.3l13.6-11.7c1.8-1.5,3.7-2.2,5.6-2.2c2.1,0,4,0.8,5.5,2.3c1.6,1.5,2.3,3.2,2.3,5v19.5c0,3.7-1.6,6.9-4.7,9.6
			l-4.3,3.6l1.7,4.1H86c0.9,0,1.6,0.3,2.3,0.9c0.6,0.6,0.9,1.4,0.9,2.3c0,0.9-0.3,1.6-0.9,2.3c-0.6,0.6-1.4,0.9-2.3,0.9h-8.7l-2.3-6
			l-4.4,3.6c-1.9,1.6-3.9,2.4-5.8,2.4c-2.2,0-4.1-0.8-5.6-2.3c-1.5-1.5-2.3-3.4-2.3-5.6v-17.8c0-2.2,0.3-4.1,1-5.8
			C58.7,149.7,60,148.1,62.1,146.3z M79.9,139.2l-13.6,11.8c-1.2,1-2,2-2.4,3c-0.4,0.9-0.6,2.3-0.6,4v16.6c0,1.3,0.5,2,1.5,2
			c0.4,0,0.8-0.2,1.2-0.5l6.5-5.6l-2.1-5.6c-0.3-0.7-0.5-1.4-0.5-1.9c0-0.8,0.3-1.5,1-2.1c0.6-0.6,1.4-0.9,2.2-0.9
			c1.5,0,2.5,0.6,3,1.8l1.6,4.3c1.8-1.4,3.1-2.6,3.8-3.6c0.7-0.9,1.1-2.1,1.1-3.4v-18.8c0-1.1-0.5-1.6-1.5-1.6
			C80.7,138.7,80.2,138.8,79.9,139.2z"/>
		<path d="M104.1,179.6v-47.3h22.6c2.6,0,4.9,0.9,6.7,2.8c1.9,1.9,2.8,4.2,2.8,6.8v3.6c0,2.7-0.9,4.9-2.8,6.8
			c-1.9,1.9-4.1,2.8-6.8,2.8h-4.1l13,22.4c0.4,0.7,0.6,1.3,0.6,2c0,0.9-0.3,1.6-1,2.2c-0.7,0.6-1.4,0.9-2.2,0.9
			c-1.3,0-2.2-0.6-2.9-1.7l-14.9-25.8h-4.6v24.3c0,0.9-0.3,1.6-1,2.3c-0.6,0.6-1.4,0.9-2.3,0.9c-0.9,0-1.6-0.3-2.3-0.9
			C104.4,181.2,104.1,180.5,104.1,179.6z M110.5,148.9h16.2c0.9,0,1.6-0.3,2.3-0.9c0.6-0.6,0.9-1.4,0.9-2.3V142
			c0-0.9-0.3-1.6-0.9-2.3c-0.6-0.6-1.4-0.9-2.3-0.9h-16.2V148.9z"/>
		<path d="M215.4,176.4h11.5c0.9,0,1.7,0.3,2.3,0.9c0.6,0.6,1,1.4,1,2.3c0,0.9-0.3,1.6-1,2.3c-0.6,0.6-1.4,0.9-2.3,0.9H215
			c-1.5,0-3.1-0.5-4.7-1.4c-1.6-1-2.7-2-3.4-3.2l-7.4-14.2c-1-2.1-1.5-4.2-1.5-6.3c0-2.4,0.5-4.4,1.4-6.2l7.4-14.1
			c0.7-1.3,1.8-2.5,3.3-3.5c1.5-1,2.9-1.5,4.3-1.5h12.6c0.9,0,1.6,0.3,2.3,0.9c0.6,0.6,0.9,1.4,0.9,2.2c0,0.9-0.3,1.7-0.9,2.3
			s-1.4,1-2.3,1H215c-1,0-1.8,0.6-2.5,1.8l-7.1,13.2c-0.6,1-0.8,2.3-0.8,3.7c0,1.5,0.3,2.8,0.9,4l6.8,13
			C212.9,175.7,214,176.4,215.4,176.4z"/>
		<path d="M268.5,137l7,14.3c1,1.9,1.5,4.1,1.5,6.3c0,2.2-0.5,4.3-1.5,6.3l-7,14.2c-1.5,3.1-4,4.7-7.6,4.7c-1.7,0-3.2-0.4-4.6-1.3
			c-1.4-0.9-2.4-2-3.1-3.3l-7.1-14.2c-0.9-1.8-1.4-3.9-1.4-6.3c0-2.4,0.5-4.5,1.4-6.3l7.1-14.3c1.6-3.1,4.1-4.7,7.6-4.7
			C264.5,132.3,267,133.9,268.5,137z M258.8,140.2l-6.6,13.4c-0.6,1.3-0.9,2.7-0.9,3.9c0,1.4,0.3,2.7,0.9,4l6.8,13.6
			c0.4,0.8,1,1.3,1.9,1.3c0.8,0,1.4-0.4,1.9-1.3l6.8-13.6c0.6-1.3,0.9-2.7,0.9-4c0-1.4-0.3-2.7-0.9-3.9l-6.7-13.4
			c-0.4-1-1.1-1.5-2-1.5S259.3,139.2,258.8,140.2z"/>
		<path d="M295,132.3h12.6c1.6,0,3.2,0.6,4.8,1.6c1.6,1,2.7,2.3,3.4,3.8l6.3,12.8c1.2,2.3,1.8,4.7,1.8,7.2c0,2.3-0.6,4.7-1.9,7.2
			l-6.3,12.6c-0.8,1.6-2,2.9-3.5,3.9c-1.5,1-3.2,1.5-5.1,1.5h-12.2c-0.9,0-1.6-0.3-2.3-0.9c-0.6-0.6-0.9-1.4-0.9-2.2
			c0-0.9,0.3-1.7,0.9-2.3c0.6-0.6,1.4-1,2.3-1h3.3v-37.5H295c-0.9,0-1.6-0.3-2.3-1c-0.6-0.6-0.9-1.4-0.9-2.3c0-0.9,0.3-1.6,0.9-2.2
			C293.3,132.6,294.1,132.3,295,132.3z M304.6,138.8v37.6l2.2,0c1.4,0,2.5-0.7,3.2-2.1l6.3-12.5c0.8-1.6,1.2-3,1.2-4.1
			c0-1.4-0.3-2.7-0.9-3.9l-6.5-13c-0.7-1.3-1.8-1.9-3.3-1.9H304.6z"/>
		<path d="M367.8,138.8h-22.6v15.5h9.7c0.9,0,1.6,0.3,2.2,0.9c0.6,0.6,0.9,1.4,0.9,2.2c0,0.9-0.3,1.7-0.9,2.3
			c-0.6,0.6-1.4,0.9-2.3,0.9h-9.7v15.6h22.6c0.9,0,1.6,0.3,2.2,0.9c0.6,0.6,0.9,1.4,0.9,2.3c0,0.9-0.3,1.6-1,2.3
			c-0.6,0.6-1.4,0.9-2.3,0.9h-28.9v-50.5h28.9c0.9,0,1.7,0.3,2.3,1s1,1.4,1,2.3c0,0.9-0.3,1.6-1,2.2
			C369.4,138.4,368.6,138.8,367.8,138.8z"/>
	</g>
	<g>
		<path d="M21.5,198.5H32c0.9,0,1.6,0.3,2.3,0.9c0.6,0.6,0.9,1.4,0.9,2.3c0,0.9-0.3,1.7-1,2.3c-0.7,0.6-1.4,0.9-2.2,0.9H21.9
			c-1,0-1.8,0.5-2.6,1.4l-8.9,11.5c-0.8,0.9-1.1,2.2-1.1,3.8v17.7c0,0.9,0.3,1.7,0.9,2.3c0.6,0.6,1.4,0.9,2.3,0.9h13
			c0.9,0,1.6-0.3,2.2-0.9c0.6-0.6,0.9-1.4,0.9-2.2v-6.9H22c-0.9,0-1.7-0.3-2.3-0.9c-0.6-0.6-0.9-1.4-0.9-2.3c0-0.9,0.3-1.6,0.9-2.3
			c0.6-0.6,1.4-0.9,2.3-0.9h13v13.3c0,2.6-0.9,4.9-2.8,6.8c-1.9,1.9-4.1,2.8-6.8,2.8h-13c-2.7,0-4.9-0.9-6.8-2.8
			c-1.9-1.9-2.8-4.1-2.8-6.8v-17.7c0-3.2,0.8-5.8,2.5-8l9.4-12c0.7-0.9,1.6-1.7,2.9-2.3C18.9,198.8,20.1,198.5,21.5,198.5z"/>
		<path d="M78.9,205H56.3v15.5H66c0.9,0,1.6,0.3,2.2,0.9c0.6,0.6,0.9,1.4,0.9,2.2c0,0.9-0.3,1.7-0.9,2.3c-0.6,0.6-1.4,0.9-2.3,0.9
			h-9.7v15.6h22.6c0.9,0,1.6,0.3,2.2,0.9c0.6,0.6,0.9,1.4,0.9,2.3c0,0.9-0.3,1.6-1,2.3c-0.6,0.6-1.4,0.9-2.3,0.9H49.9v-50.5h28.9
			c0.9,0,1.7,0.3,2.3,1s1,1.4,1,2.3c0,0.9-0.3,1.6-1,2.2C80.5,204.6,79.7,205,78.9,205z"/>
		<path d="M129,201.8V249h-8.6l-17.2-39.2v36c0,0.9-0.3,1.6-0.9,2.3c-0.6,0.6-1.4,0.9-2.3,0.9c-0.9,0-1.6-0.3-2.3-0.9
			c-0.6-0.6-0.9-1.4-0.9-2.3v-47.3h8.4l17.2,39.1v-35.8c0-0.9,0.3-1.7,1-2.3s1.4-1,2.3-1s1.6,0.3,2.3,0.9
			C128.7,200.1,129,200.9,129,201.8z"/>
		<path d="M172.8,205h-22.6v15.5h9.7c0.9,0,1.6,0.3,2.2,0.9c0.6,0.6,0.9,1.4,0.9,2.2c0,0.9-0.3,1.7-0.9,2.3
			c-0.6,0.6-1.4,0.9-2.3,0.9h-9.7v15.6h22.6c0.9,0,1.6,0.3,2.2,0.9c0.6,0.6,0.9,1.4,0.9,2.3c0,0.9-0.3,1.6-1,2.3
			c-0.6,0.6-1.4,0.9-2.3,0.9h-28.9v-50.5h28.9c0.9,0,1.7,0.3,2.3,1s1,1.4,1,2.3c0,0.9-0.3,1.6-1,2.2
			C174.4,204.6,173.7,205,172.8,205z"/>
		<path d="M190.9,245.8v-47.3h22.6c2.6,0,4.9,0.9,6.7,2.8c1.9,1.9,2.8,4.2,2.8,6.8v3.6c0,2.7-0.9,4.9-2.8,6.8
			c-1.9,1.9-4.1,2.8-6.8,2.8h-4.1l13,22.4c0.4,0.7,0.6,1.3,0.6,2c0,0.9-0.3,1.6-1,2.2c-0.7,0.6-1.4,0.9-2.2,0.9
			c-1.3,0-2.2-0.6-2.9-1.7L202,221.4h-4.6v24.3c0,0.9-0.3,1.6-1,2.3c-0.6,0.6-1.4,0.9-2.3,0.9s-1.6-0.3-2.3-0.9
			C191.2,247.4,190.9,246.7,190.9,245.8z M197.3,215.1h16.2c0.9,0,1.6-0.3,2.3-0.9c0.6-0.6,0.9-1.4,0.9-2.3v-3.7
			c0-0.9-0.3-1.6-0.9-2.3c-0.6-0.6-1.4-0.9-2.3-0.9h-16.2V215.1z"/>
		<path d="M238,244.5l12.8-43.6c0.5-1.6,1.6-2.4,3.2-2.4c1.6,0,2.6,0.7,3,2l12.7,44.3c0.1,0.3,0.2,0.6,0.2,0.9
			c0,0.9-0.3,1.6-0.9,2.3c-0.6,0.6-1.3,0.9-2.1,0.9c-1.7,0-2.7-0.8-3.2-2.3l-2.5-8.7h-14.6l-2.8,9.3c-0.1,0.4-0.4,0.8-1,1.2
			c-0.6,0.4-1.2,0.5-1.8,0.5c-0.9,0-1.7-0.3-2.3-0.9c-0.6-0.6-0.9-1.4-0.9-2.3C237.8,245.3,237.9,244.9,238,244.5z M254,213.3
			l-5.5,18.3h10.8L254,213.3z"/>
		<path d="M284.7,207.2v-8.6h32.2v8.7c0,0.9-0.3,1.6-0.9,2.3c-0.6,0.6-1.4,0.9-2.2,0.9c-0.9,0-1.7-0.3-2.3-0.9c-0.6-0.6-1-1.4-1-2.2
			V205H304v40.8c0,0.9-0.3,1.6-0.9,2.3c-0.6,0.6-1.4,0.9-2.2,0.9c-0.9,0-1.7-0.3-2.3-0.9c-0.6-0.6-0.9-1.4-0.9-2.3V205h-6.5v2.2
			c0,0.9-0.3,1.6-0.9,2.3c-0.6,0.6-1.4,0.9-2.3,0.9c-0.9,0-1.6-0.3-2.3-0.9C285,208.8,284.7,208.1,284.7,207.2z"/>
		<path d="M355.3,203.2l7,14.3c1,1.9,1.5,4.1,1.5,6.3c0,2.2-0.5,4.3-1.5,6.3l-7,14.2c-1.5,3.1-4,4.7-7.6,4.7c-1.7,0-3.2-0.4-4.6-1.3
			c-1.4-0.9-2.4-2-3.1-3.3l-7.1-14.2c-0.9-1.8-1.4-3.9-1.4-6.3c0-2.4,0.5-4.5,1.4-6.3l7.1-14.3c1.6-3.1,4.1-4.7,7.6-4.7
			C351.3,198.5,353.8,200.1,355.3,203.2z M345.6,206.4l-6.6,13.4c-0.6,1.3-0.9,2.7-0.9,3.9c0,1.4,0.3,2.7,0.9,4l6.8,13.6
			c0.4,0.8,1,1.3,1.9,1.3c0.8,0,1.4-0.4,1.9-1.3l6.8-13.6c0.6-1.3,0.9-2.7,0.9-4c0-1.4-0.3-2.7-0.9-3.9l-6.7-13.4
			c-0.4-1-1.1-1.5-2-1.5S346.1,205.4,345.6,206.4z"/>
		<path d="M378.8,245.8v-47.3h22.6c2.6,0,4.9,0.9,6.7,2.8c1.9,1.9,2.8,4.2,2.8,6.8v3.6c0,2.7-0.9,4.9-2.8,6.8
			c-1.9,1.9-4.1,2.8-6.8,2.8h-4.1l13,22.4c0.4,0.7,0.6,1.3,0.6,2c0,0.9-0.3,1.6-1,2.2c-0.7,0.6-1.4,0.9-2.2,0.9
			c-1.3,0-2.2-0.6-2.9-1.7l-14.9-25.8h-4.6v24.3c0,0.9-0.3,1.6-1,2.3c-0.6,0.6-1.4,0.9-2.3,0.9c-0.9,0-1.6-0.3-2.3-0.9
			C379.1,247.4,378.8,246.7,378.8,245.8z M385.1,215.1h16.2c0.9,0,1.6-0.3,2.3-0.9c0.6-0.6,0.9-1.4,0.9-2.3v-3.7
			c0-0.9-0.3-1.6-0.9-2.3c-0.6-0.6-1.4-0.9-2.3-0.9h-16.2V215.1z"/>
	</g>
	<path class="st2" d="M28.9,641.2h-875.7c-9.1,0-16.5-7.4-16.5-16.5V522.2c0-9.1,7.4-16.5,16.5-16.5H28.9c9.1,0,16.5,7.4,16.5,16.5
		v102.4C45.5,633.8,38.1,641.2,28.9,641.2z"/>
</g>
<g id="Layer_4">
	<rect x="147.5" y="653.9" width="43.2" height="43.2"/>
	<path d="M111,617.6v115.8h115.8V617.6H111z M204.3,711.1H133v-71.3h71.3V711.1z"/>
	<rect x="147.5" y="653.9" class="st2" width="43.2" height="43.2"/>
	<rect x="147.5" y="653.9" width="43.2" height="43.2"/>
	<rect x="445.1" y="655.1" width="43.2" height="43.2"/>
	<path d="M408.6,617.5v117.1h116.7V617.5H408.6z M502.7,712h-71.8V640h71.8V712z"/>
	<rect x="445.1" y="655.1" class="st2" width="43.2" height="43.2"/>
	<rect x="445.1" y="655.1" width="43.2" height="43.2"/>
	<rect x="148.6" y="950.9" width="43.2" height="43.2"/>
	<path d="M110.8,914.6v116.9H228V914.6H110.8z M205.2,1009h-72.1v-71.9h72.1V1009z"/>
	<rect x="148.6" y="950.9" class="st2" width="43.2" height="43.2"/>
	<rect x="148.6" y="950.9" width="43.2" height="43.2"/>
	<rect x="241.3" y="617.6" width="16.4" height="16.4"/>
	<rect x="243.1" y="716.8" width="17.2" height="16.6"/>
	<rect x="243.1" y="749.3" width="33.7" height="14"/>
	<rect x="257.7" y="633.9" width="18.8" height="16.8"/>
	<rect x="259.7" y="666.3" width="16.8" height="16.8"/>
	<rect x="259.7" y="700.2" width="17" height="33.2"/>
	<rect x="276.5" y="683.1" width="33.7" height="33.7"/>
	<rect x="276.4" y="650.8" width="15.8" height="15.5"/>
	<rect x="276.1" y="617.6" width="15.9" height="16.4"/>
	<rect x="310.3" y="666.3" width="16.8" height="16.8"/>
	<rect x="308.9" y="633.9" width="16.8" height="16.8"/>
	<rect x="325.8" y="650.2" width="17" height="17"/>
	<rect x="341.3" y="617.6" width="17.7" height="17.7"/>
	<rect x="359.1" y="633.9" width="16.4" height="34.4"/>
	<rect x="375.4" y="650.9" width="17.5" height="17.5"/>
	<rect x="360.3" y="699.9" width="16.1" height="16.1"/>
	<rect x="376.4" y="716.8" width="16.5" height="15.4"/>
	<rect x="359.1" y="732.2" width="17.5" height="17.5"/>
	<rect x="392.9" y="749.8" width="16.8" height="13.5"/>
	<rect x="458.7" y="749.8" width="18.4" height="13.5"/>
	<rect x="493.4" y="749.3" width="16.3" height="14"/>
	<rect x="110.8" y="886.1" width="17.9" height="12.5"/>
	<rect x="143.6" y="886.1" width="17.5" height="13.6"/>
	<rect x="177.5" y="886.1" width="51" height="12.5"/>
	<rect x="243.8" y="886.1" width="34.1" height="12.5"/>
	<rect x="277.9" y="898.6" width="33.1" height="33.1"/>
	<rect x="245.4" y="914.6" width="15.5" height="17"/>
	<rect x="260.9" y="931.6" width="17" height="16.4"/>
	<rect x="242.2" y="948" width="17.9" height="17.9"/>
	<rect x="260.1" y="966" width="34.3" height="56.1"/>
	<rect x="243.8" y="982.2" width="16.6" height="16.6"/>
	<rect x="311" y="965.4" width="34.1" height="33.4"/>
	<rect x="327.1" y="933" width="32.9" height="32.9"/>
	<rect x="345" y="998.8" width="16.7" height="14.9"/>
	<rect x="361.7" y="1013.8" width="16.4" height="17.7"/>
	<rect x="378.1" y="979.4" width="16.5" height="16.5"/>
	<rect x="394.6" y="995.9" width="16.2" height="17.9"/>
	<rect x="394.6" y="963.7" width="16.2" height="15.8"/>
	<rect x="410.8" y="979.4" width="16.8" height="16.5"/>
	<rect x="444" y="982.4" width="16.5" height="14.8"/>
	<rect x="444" y="1013.8" width="16.4" height="17.7"/>
	<rect x="460.5" y="997.2" width="15.8" height="17"/>
	<rect x="458.7" y="948.7" width="34.3" height="33.7"/>
	<rect x="475.9" y="982.4" width="17.5" height="14.8"/>
	<rect x="493.4" y="997.2" width="15.4" height="17"/>
	<rect x="405" y="915.1" width="25.6" height="21.8"/>
	<path d="M376.4,886.1v78.3h82.3v-78.3H376.4z M444,948h-51.1v-44H444V948z"/>
	<rect x="405" y="915.1" class="st2" width="25.6" height="21.8"/>
	<rect x="405" y="914.6" width="25.6" height="22.3"/>
	<rect x="508.9" y="886.1" width="16.4" height="12.5"/>
	<rect x="493.6" y="915.1" width="31.5" height="33.6"/>
	<rect x="508.9" y="982.4" width="16.4" height="14.8"/>
	<rect x="508.9" y="1014.2" width="16.4" height="17.3"/>
	<rect x="343.5" y="886.1" width="18.9" height="13.7"/>
	<rect x="458.7" y="916.3" width="17.7" height="17.1"/>
	<rect x="476.3" y="898.6" width="17.2" height="17.2"/>
	<g>
		<rect x="36.7" y="36.5" width="43.2" height="43.2"/>
		<path d="M0.2,0.2V116H116V0.2H0.2z M93.5,93.7H22.3V22.4h71.3V93.7z"/>
		<rect x="36.7" y="36.5" class="st2" width="43.2" height="43.2"/>
		<rect x="36.7" y="36.5" width="43.2" height="43.2"/>
		<rect x="334.3" y="37.6" width="43.2" height="43.2"/>
		<path d="M297.8,0.1v117.1h116.7V0.1H297.8z M391.9,94.6h-71.8V22.6h71.8V94.6z"/>
		<rect x="334.3" y="37.6" class="st2" width="43.2" height="43.2"/>
		<rect x="334.3" y="37.6" width="43.2" height="43.2"/>
		<rect x="130.6" y="0.2" width="16.4" height="16.4"/>
		<rect x="132.3" y="99.3" width="17.2" height="16.6"/>
		<rect x="146.9" y="16.5" width="18.8" height="16.8"/>
		<rect x="148.9" y="48.8" width="16.8" height="16.8"/>
		<rect x="148.9" y="82.8" width="17" height="33.2"/>
		<rect x="165.8" y="65.7" width="33.7" height="33.7"/>
		<rect x="165.6" y="33.3" width="15.8" height="15.5"/>
		<rect x="165.4" y="0.2" width="15.9" height="16.4"/>
		<rect x="199.5" y="48.8" width="16.8" height="16.8"/>
		<rect x="198.2" y="16.5" width="16.8" height="16.8"/>
		<rect x="215" y="32.8" width="17" height="17"/>
		<rect x="230.6" y="0.2" width="17.7" height="17.7"/>
		<rect x="248.3" y="16.5" width="16.4" height="34.4"/>
		<rect x="264.6" y="33.4" width="17.5" height="17.5"/>
		<rect x="249.5" y="82.5" width="16.1" height="16.1"/>
		<rect x="265.6" y="99.4" width="16.5" height="15.4"/>
	</g>
	<rect x="37.9" y="303.4" width="43.2" height="43.2"/>
	<path d="M0,267.1V384h117.2V267.1H0z M94.5,361.6H22.3v-71.9h72.1V361.6z"/>
	<rect x="37.9" y="303.4" class="st2" width="43.2" height="43.2"/>
	<rect x="37.9" y="303.4" width="43.2" height="43.2"/>
	<rect x="166.8" y="267.2" width="33.1" height="33.4"/>
	<rect x="134.6" y="267.1" width="15.5" height="17"/>
	<rect x="150.1" y="284.2" width="17" height="16.4"/>
	<rect x="131.4" y="300.6" width="17.9" height="17.9"/>
	<rect x="149.3" y="318.5" width="34.3" height="56.1"/>
	<rect x="133.1" y="334.8" width="16.6" height="16.6"/>
	<rect x="200.2" y="318" width="34.1" height="33.4"/>
	<rect x="216.3" y="285.6" width="32.9" height="32.9"/>
	<rect x="234.2" y="351.4" width="16.7" height="14.9"/>
	<rect x="250.9" y="366.3" width="16.4" height="17.7"/>
	<rect x="283.8" y="349.5" width="16.2" height="16.8"/>
	<rect x="332.5" y="366.3" width="16.4" height="17.7"/>
	<rect x="349" y="349.8" width="16.6" height="17"/>
	<rect x="347.9" y="301.2" width="34.3" height="33.7"/>
	<rect x="364.7" y="334.9" width="17.5" height="14.8"/>
	<rect x="382.1" y="349.8" width="16" height="17"/>
	<path d="M266.7,267.2v82.5H349v-82.5H266.7z M334.3,332.4h-51.1V286h51.1V332.4z"/>
	<rect x="296.4" y="295.1" width="25.6" height="22.3"/>
	<rect x="382.1" y="267.2" width="32.2" height="34"/>
	<rect x="398.1" y="334.9" width="16.4" height="14.8"/>
	<rect x="398.1" y="366.7" width="16.4" height="17.3"/>
	<rect x="348.4" y="267.2" width="17.7" height="17.1"/>
</g>
<g id="Layer_6">
	<g>
	</g>
	<g>
	</g>
	<g>
	</g>
	<g>
	</g>
	<g>
	</g>
	<g>
	</g>
	<g>
	</g>
	<g>
	</g>
	<g>
	</g>
	<g>
	</g>
	<g>
	</g>
	<g>
	</g>
	<g>
	</g>
	<g>
	</g>
	<g>
	</g>
</g>
</svg>
